<svg xmlns="http://www.w3.org/2000/svg" viewBox="0 0 33.03 22.73"><g id="Capa_2" data-name="Capa 2"><g id="Capa_1-2" data-name="Capa 1"><path d="M31.68,0H1.26C.38,0,0,.39,0,1.26V21.44c0,.92.37,1.29,1.31,1.29H31.73c.92,0,1.3-.38,1.3-1.3V1.33C33,.36,32.67,0,31.68,0ZM31,4.15v15.2l-10.4-7.6,10-7.33Zm-15.22,10a1.08,1.08,0,0,0,1.59,0L18.81,13l10.39,7.6H3.83L14.23,13Zm14.49-12-2,1.49Q22.5,7.78,16.79,12c-.35.26-.53,0-.74-.14-2.34-1.71-4.67-3.44-7-5.16L3.09,2.3l-.25-.2Zm-26,3.57,8.3,6.08L2.09,19.34V4.14Z"/></g></g></svg>