<svg xmlns="http://www.w3.org/2000/svg" viewBox="0 0 31.8 32.08"><g id="Capa_2" data-name="Capa 2"><g id="Capa_1-2" data-name="Capa 1"><g id="U8YCBX"><path d="M0,32.08c.18-.52.34-1,.5-1.5q1.14-3.36,2.26-6.72a.41.41,0,0,0,0-.29A15.12,15.12,0,0,1,.67,14,15.17,15.17,0,0,1,9.56,1.52,15.48,15.48,0,0,1,27.31,4.67a15.07,15.07,0,0,1,4.44,9.61,15.25,15.25,0,0,1-5.47,13.28,15,15,0,0,1-7.88,3.55,15.4,15.4,0,0,1-9.56-1.69.46.46,0,0,0-.41,0L.22,32Zm4.06-4,.18,0,4.59-1.47a.43.43,0,0,1,.41.05,12.91,12.91,0,0,0,13.06.5,12.69,12.69,0,0,0,6.78-9.83,12.38,12.38,0,0,0-2.43-9.34,12.63,12.63,0,0,0-9.16-5.23A12.25,12.25,0,0,0,8.74,5,12.69,12.69,0,0,0,3.31,17.25,12.24,12.24,0,0,0,5.56,23.1a.31.31,0,0,1,.06.33l-1,3.09Z"/><path d="M8.39,12.11A4.67,4.67,0,0,1,10,8.34,1.39,1.39,0,0,1,11.15,8l.79.05a.59.59,0,0,1,.54.37c.15.34.28.69.41,1,.3.79.59,1.58.89,2.36a.83.83,0,0,1,0,.69,5.22,5.22,0,0,1-1,1.3c-.33.33-.37.47-.14.89a10.73,10.73,0,0,0,4.94,4.71c.14.06.26.14.4.2a.54.54,0,0,0,.72-.14c.43-.49.87-1,1.29-1.48.28-.33.45-.4.84-.23s.73.34,1.09.53c.7.37,1.4.76,2.1,1.12a.63.63,0,0,1,.38.67A4.91,4.91,0,0,1,24,21.6a.92.92,0,0,1-.17.29,4.33,4.33,0,0,1-2.5,1.48,4.4,4.4,0,0,1-2.56-.27A19,19,0,0,1,15,21.39,15.7,15.7,0,0,1,10.61,17c-.54-.79-1-1.6-1.5-2.44A5.73,5.73,0,0,1,8.39,12.11Z"/></g></g></g></svg>